# xmcd
#
# Track frame offsets: 
#        182
#        13280
#        28470
#        39322
#        52292
#        64410
#        91982
#        114572
#        126330
#        139622
#        152740
#        173362
#        189727
#        203902
#        220850
#        232700
#
# Disc length: 3336 seconds
#
# Revision: 3
# Processed by: cddbd v1.5.2PL0 Copyright (c) Steve Scherf et al.
# Submitted via: ExactAudioCopyFreeDBPlugin 1.0
#
DISCID=e60d0610
DTITLE=Francis Goya - The Very Best Of
DYEAR=1994
DGENRE=
TTITLE0=Nostalgia
TTITLE1=Theme From 'The Deerhunter'
TTITLE2=Concierto d'aranjuez
TTITLE3=Bilitis
TTITLE4=Ballade Pour Adeline
TTITLE5=Who Pays The Ferryman
TTITLE6=Unchained Melody
TTITLE7=La Comparsa
TTITLE8=Once Upon A Time In The West
TTITLE9=Concierto Pour Une Voix
TTITLE10=Zorba's Dance
TTITLE11=Elvira Madigan
TTITLE12=Sleepy Shores
TTITLE13=Greensleeves
TTITLE14=Are You Lonesome Tonight
TTITLE15=Exodus
EXTD=
EXTT0=
EXTT1=
EXTT2=
EXTT3=
EXTT4=
EXTT5=
EXTT6=
EXTT7=
EXTT8=
EXTT9=
EXTT10=
EXTT11=
EXTT12=
EXTT13=
EXTT14=
EXTT15=
PLAYORDER=
